%FSTAX23Y23*%
%MOIN*%
%SFA1B1*%

%IPPOS*%
%AMD104*
4,1,8,0.022000,-0.053100,0.053100,-0.022000,0.053100,0.022000,0.022000,0.053100,-0.022000,0.053100,-0.053100,0.022000,-0.053100,-0.022000,-0.022000,-0.053100,0.022000,-0.053100,0.0*
%
%ADD72R,0.061000X0.045000*%
%ADD73R,0.030000X0.026000*%
%ADD74R,0.099000X0.228000*%
%ADD75R,0.063000X0.142000*%
%ADD76O,0.079000X0.020000*%
%ADD77O,0.020000X0.079000*%
%ADD78R,0.126000X0.071000*%
%ADD79R,0.026000X0.030000*%
%ADD80R,0.028000X0.028000*%
%ADD81R,0.028000X0.028000*%
%ADD82R,0.043000X0.039000*%
%ADD83R,0.045000X0.061000*%
%ADD84R,0.036000X0.032000*%
%ADD85R,0.068000X0.032000*%
%ADD86R,0.075000X0.045000*%
%ADD87R,0.032000X0.036000*%
%ADD88R,0.032000X0.043000*%
%ADD89R,0.047000X0.043000*%
%ADD90R,0.059000X0.063000*%
%ADD91R,0.049000X0.032000*%
%ADD92R,0.059000X0.071000*%
%ADD93R,0.034000X0.041000*%
%ADD94R,0.073000X0.073000*%
%ADD95R,0.018000X0.036000*%
%ADD96R,0.036000X0.018000*%
%ADD97C,0.169000*%
%ADD98C,0.116000*%
%ADD99C,0.061000*%
%ADD100R,0.061000X0.061000*%
%ADD101C,0.067000*%
%ADD102R,0.067000X0.067000*%
%ADD103C,0.106000*%
G04~CAMADD=104~4~0.0~0.0~1062.5~1062.5~0.0~311.2~0~0.0~0.0~0.0~0.0~0~0.0~0.0~0.0~0.0~0~0.0~0.0~0.0~225.0~1062.5~1062.5*
%ADD104D104*%
%ADD105R,0.106000X0.106000*%
%ADD106C,0.068000*%
%LNkavi_pcb_r5-1*%
%LPD*%
G54D72*
X00992Y-00131D03*
Y-00069D03*
X00694Y-00126D03*
Y-00064D03*
X0036Y0034D03*
Y00402D03*
Y00576D03*
Y00513D03*
X0064Y00338D03*
Y004D03*
Y0052D03*
Y00582D03*
X01855Y00924D03*
Y00986D03*
G54D73*
X02158Y00295D03*
Y0033D03*
X02226Y00333D03*
Y00297D03*
X02223Y01272D03*
Y01236D03*
X02289Y01237D03*
Y01272D03*
X02622Y01113D03*
Y01148D03*
X02697Y01113D03*
Y01149D03*
X02689Y01214D03*
Y01249D03*
X00745Y00547D03*
Y00583D03*
X01176Y00723D03*
Y00687D03*
X02623Y01213D03*
Y01248D03*
X0056Y01017D03*
Y01053D03*
X01566Y00095D03*
Y00059D03*
X01623Y00095D03*
Y00059D03*
G54D74*
X0122Y0139D03*
X0178D03*
G54D75*
X01352Y01202D03*
X0145D03*
X01549D03*
X01647D03*
G54D76*
X02007Y00726D03*
Y00707D03*
Y00687D03*
Y00667D03*
Y00647D03*
Y00628D03*
Y00608D03*
Y00588D03*
Y00569D03*
Y00549D03*
Y00529D03*
Y0051D03*
Y0049D03*
Y0047D03*
Y00451D03*
Y00431D03*
Y00411D03*
Y00392D03*
Y00372D03*
Y00352D03*
Y00333D03*
Y00313D03*
Y00293D03*
Y00273D03*
Y00254D03*
X01413D03*
Y00273D03*
Y00293D03*
Y00313D03*
Y00333D03*
Y00352D03*
Y00372D03*
Y00392D03*
Y00411D03*
Y00431D03*
Y00451D03*
Y0047D03*
Y0049D03*
Y0051D03*
Y00529D03*
Y00549D03*
Y00569D03*
Y00588D03*
Y00608D03*
Y00628D03*
Y00647D03*
Y00667D03*
Y00687D03*
Y00707D03*
Y00726D03*
G54D77*
X01946Y00193D03*
X01927D03*
X01907D03*
X01887D03*
X01867D03*
X01848D03*
X01828D03*
X01808D03*
X01789D03*
X01769D03*
X01749D03*
X0173D03*
X0171D03*
X0169D03*
X01671D03*
X01651D03*
X01631D03*
X01612D03*
X01592D03*
X01572D03*
X01553D03*
X01533D03*
X01513D03*
X01493D03*
X01474D03*
Y00787D03*
X01493D03*
X01513D03*
X01533D03*
X01553D03*
X01572D03*
X01592D03*
X01612D03*
X01631D03*
X01651D03*
X01671D03*
X0169D03*
X0171D03*
X0173D03*
X01749D03*
X01769D03*
X01789D03*
X01808D03*
X01828D03*
X01848D03*
X01867D03*
X01887D03*
X01907D03*
X01927D03*
X01946D03*
G54D78*
X00558Y-0005D03*
X00385D03*
G54D79*
X02288Y00654D03*
X02287Y00582D03*
X00712Y00455D03*
X00748D03*
X00993Y00769D03*
X00957D03*
Y00678D03*
X00993D03*
X02324Y00654D03*
X02323Y00582D03*
X00732Y01312D03*
X00768D03*
X01012Y01275D03*
X01048D03*
X01012Y011D03*
X01048D03*
X00337Y0095D03*
X00373D03*
Y00875D03*
X00337D03*
X00373Y00653D03*
X00409D03*
X01375Y00949D03*
X0134D03*
X02365Y00858D03*
X02401D03*
X02364Y00801D03*
X024D03*
X02366Y00744D03*
X02402D03*
X02612Y00159D03*
X02648D03*
X02612Y00231D03*
X02648D03*
X02612Y00087D03*
X02648D03*
X02612Y-00011D03*
X02648D03*
X02612Y-00083D03*
X02648D03*
X02612Y-00155D03*
X02648D03*
X0171Y00096D03*
X01674D03*
X01973Y00111D03*
X01937D03*
G54D80*
X02105Y0058D03*
X02137D03*
Y00655D03*
X02105D03*
X02136Y00747D03*
X02167D03*
Y01085D03*
X02136D03*
X01079Y01357D03*
X01111D03*
X01283Y00687D03*
X01315D03*
G54D81*
X02105Y00416D03*
Y00448D03*
X01479Y00917D03*
Y00885D03*
X01562Y00917D03*
Y00885D03*
X0163Y00917D03*
Y00885D03*
X01808Y00075D03*
Y00106D03*
G54D82*
X00572Y00847D03*
Y00921D03*
X00494Y00884D03*
X00866Y01312D03*
Y01238D03*
X00944Y01275D03*
X00871Y01137D03*
Y01063D03*
X00949Y011D03*
G54D83*
X01049Y01443D03*
X01112D03*
G54D84*
X00338Y00756D03*
X00416Y00719D03*
Y00793D03*
X00415Y01045D03*
X00493Y01008D03*
Y01082D03*
X00928Y00971D03*
Y00897D03*
X0101Y00934D03*
X02612Y01342D03*
Y01416D03*
X0253Y01379D03*
X02297Y01347D03*
Y01421D03*
X02215Y01384D03*
X02767Y01342D03*
Y01416D03*
X02685Y01379D03*
X02447Y01347D03*
Y01421D03*
X02365Y01384D03*
X00819Y00107D03*
Y00033D03*
X00901Y0007D03*
X00494Y00752D03*
Y00678D03*
X00576Y00715D03*
G54D85*
X00657Y00825D03*
Y00775D03*
Y00725D03*
Y00675D03*
X00873Y00825D03*
Y00775D03*
Y00725D03*
Y00675D03*
G54D86*
X0197Y00895D03*
Y01005D03*
G54D87*
X02028Y01255D03*
X01954D03*
X01991Y01173D03*
X02028Y01395D03*
X01954D03*
X01991Y01313D03*
G54D88*
X02283Y00515D03*
X02357D03*
Y00425D03*
G54D89*
X0229Y00425D03*
G54D90*
X00359Y00175D03*
X00473D03*
G54D91*
X00554Y00402D03*
Y00328D03*
X00446D03*
Y00365D03*
Y00402D03*
X00894Y-00063D03*
Y-00137D03*
X00786D03*
Y-001D03*
Y-00063D03*
X00554Y00582D03*
Y00508D03*
X00446D03*
Y00545D03*
Y00582D03*
G54D92*
X02197Y00996D03*
Y00838D03*
X02103Y00996D03*
Y00838D03*
G54D93*
X02879Y00125D03*
X02912D03*
Y00183D03*
X02879Y00182D03*
Y-0006D03*
X02912D03*
Y-00117D03*
X02879D03*
Y01117D03*
X02912D03*
Y01175D03*
X02879Y01174D03*
G54D94*
X02509Y01166D03*
G54D95*
X02479Y01222D03*
X02499D03*
X02519D03*
X02539D03*
Y0111D03*
X02519D03*
X02499D03*
X02479D03*
G54D96*
X02565Y01196D03*
Y01176D03*
Y01156D03*
Y01136D03*
X02453D03*
Y01156D03*
Y01176D03*
Y01196D03*
G54D97*
X023Y011D03*
X007D03*
Y002D03*
X023D03*
G54D98*
X02695Y00889D03*
Y00415D03*
G54D99*
X02589Y00701D03*
Y00603D03*
X0251D03*
G54D100*
X0251Y00701D03*
G54D101*
X019Y-0015D03*
X02D03*
X021D03*
X022D03*
X02795Y00104D03*
Y-00139D03*
Y01096D03*
G54D102*
X023Y-0015D03*
G54D103*
X00076Y001D03*
Y00257D03*
Y00415D03*
Y00887D03*
Y01044D03*
Y01202D03*
X00194D03*
Y01044D03*
Y00887D03*
Y0073D03*
Y00572D03*
Y00415D03*
Y00257D03*
G54D104*
X00076Y00572D03*
Y0073D03*
G54D105*
X00194Y001D03*
G54D106*
X02795Y00204D03*
Y-00039D03*
Y01196D03*
M02*