%FSTAX23Y23*%
%MOIN*%
%SFA1B1*%

%IPPOS*%
%AMD44*
4,1,8,0.020400,-0.049400,0.049400,-0.020400,0.049400,0.020400,0.020400,0.049400,-0.020400,0.049400,-0.049400,0.020400,-0.049400,-0.020400,-0.020400,-0.049400,0.020400,-0.049400,0.0*
%
%AMD58*
4,1,8,-0.047000,0.007500,-0.047000,-0.007500,-0.039000,-0.015500,0.039000,-0.015500,0.047000,-0.007500,0.047000,0.007500,0.039000,0.015500,-0.039000,0.015500,-0.047000,0.007500,0.0*
1,1,0.016000,-0.039000,0.007500*
1,1,0.016000,-0.039000,-0.007500*
1,1,0.016000,0.039000,-0.007500*
1,1,0.016000,0.039000,0.007500*
%
%AMD59*
4,1,8,0.007500,0.047000,-0.007500,0.047000,-0.015500,0.039000,-0.015500,-0.039000,-0.007500,-0.047000,0.007500,-0.047000,0.015500,-0.039000,0.015500,0.039000,0.007500,0.047000,0.0*
1,1,0.016000,0.007500,0.039000*
1,1,0.016000,-0.007500,0.039000*
1,1,0.016000,-0.007500,-0.039000*
1,1,0.016000,0.007500,-0.039000*
%
%ADD11R,0.022000X0.018000*%
%ADD17R,0.018000X0.022000*%
%ADD18R,0.020000X0.020000*%
%ADD35C,0.006000*%
%ADD36C,0.010000*%
%ADD37C,0.161000*%
%ADD38C,0.108000*%
%ADD39C,0.053000*%
%ADD40R,0.053000X0.053000*%
%ADD41C,0.059000*%
%ADD42R,0.059000X0.059000*%
%ADD43C,0.098000*%
G04~CAMADD=44~4~0.0~0.0~988.6~988.6~0.0~289.5~0~0.0~0.0~0.0~0.0~0~0.0~0.0~0.0~0.0~0~0.0~0.0~0.0~225.0~988.6~988.6*
%ADD44D44*%
%ADD45R,0.098000X0.098000*%
%ADD46C,0.060000*%
%ADD47C,0.022000*%
%ADD48R,0.035000X0.037000*%
%ADD49R,0.028000X0.131000*%
%ADD50R,0.028000X0.043000*%
%ADD51R,0.045000X0.072000*%
%ADD52R,0.059000X0.051000*%
%ADD53O,0.024000X0.059000*%
%ADD54R,0.024000X0.039000*%
%ADD55R,0.035000X0.028000*%
%ADD56R,0.028000X0.035000*%
%ADD57R,0.024000X0.060000*%
G04~CAMADD=58~8~0.0~0.0~310.0~940.0~80.0~0.0~15~0.0~0.0~0.0~0.0~0~0.0~0.0~0.0~0.0~0~0.0~0.0~0.0~90.0~940.0~310.0*
%ADD58D58*%
G04~CAMADD=59~8~0.0~0.0~310.0~940.0~80.0~0.0~15~0.0~0.0~0.0~0.0~0~0.0~0.0~0.0~0.0~0~0.0~0.0~0.0~0.0~310.0~940.0*
%ADD59D59*%
%ADD60R,0.016000X0.086000*%
%ADD61R,0.028000X0.016000*%
%ADD62C,0.008000*%
%ADD63C,0.020000*%
%LNkavi_pcb_r5-1*%
%LPD*%
G54D11*
X00453Y01292D03*
Y01328D03*
G54D17*
X0273Y00618D03*
X02694D03*
X01786Y00689D03*
X01751D03*
X01143Y0134D03*
X01107D03*
X01143Y0126D03*
X01107D03*
X01143Y01185D03*
X01107D03*
X01143Y0111D03*
X01107D03*
X01143Y0096D03*
X01107D03*
X01143Y01035D03*
X01107D03*
X00632Y00986D03*
X00597D03*
X00674Y01443D03*
X0071D03*
G54D18*
X02727Y00679D03*
X02695D03*
X00453Y00847D03*
X00421D03*
X00385Y01292D03*
X00353D03*
X0046Y00397D03*
X00428D03*
G54D35*
X01507Y01162D02*
Y01452D01*
X01334Y01289D02*
Y0146D01*
X02207Y00556D02*
X02272Y00621D01*
X0129Y0135D02*
Y01452D01*
X01279Y00076D02*
X01283Y00073D01*
X01155Y01035D02*
X01183Y01063D01*
X0012Y0146D02*
X0045D01*
X00076Y01416D02*
X0012Y0146D01*
X00076Y01202D02*
Y01416D01*
X0048Y01404D02*
Y0143D01*
X0045Y0146D02*
X0048Y0143D01*
X00479Y01403D02*
X0048Y01404D01*
X02381Y-00089D02*
X02438D01*
X02377Y-00093D02*
X02381Y-00089D01*
X02377Y-0012D02*
Y-00093D01*
X023Y-0015D02*
X0263D01*
X0264Y-0014*
Y-0009*
X0254Y0007D02*
Y0016D01*
X02438Y00008D02*
Y00069D01*
X02433Y00003D02*
X02438Y00008D01*
X02472Y-00008D02*
X0249Y0001D01*
X02571Y-00019D02*
X0259Y0D01*
X02035Y-00012D02*
X02053Y-0003D01*
X0204Y0013D02*
X0206Y0011D01*
X0202Y0013D02*
X0204D01*
X0249Y0001D02*
Y0007D01*
X0259Y0D02*
Y0006D01*
X01107Y013D02*
Y0134D01*
Y0126D02*
Y013D01*
X01065Y01318D02*
X01083Y013D01*
X01107*
X01058Y01035D02*
X01107D01*
Y0111*
Y0096D02*
Y01035D01*
X00764Y00986D02*
X00796Y01018D01*
X00632Y00986D02*
X00764D01*
X00732Y00854D02*
X00742Y00864D01*
X00685Y00854D02*
X00732D01*
X01722Y-00067D02*
X01829D01*
X01722Y00264D02*
X01946D01*
X02027Y01361D02*
X02124Y01264D01*
X01464Y01088D02*
X01594Y01217D01*
X01228Y01088D02*
X01464D01*
X01594Y01217D02*
Y01421D01*
X01143Y0111D02*
X01455D01*
X01507Y01162*
X01643Y01471D02*
X01688Y01426D01*
X01345Y01471D02*
X01643D01*
X01334Y0146D02*
X01345Y01471D01*
X01633Y01458D02*
X0167Y01421D01*
X01513Y01458D02*
X01633D01*
X01507Y01452D02*
X01513Y01458D01*
X0167Y01383D02*
X01714Y01339D01*
X0167Y01383D02*
Y01421D01*
X01714Y01339D02*
X02023D01*
X01688Y01394D02*
Y01426D01*
Y01394D02*
X01721Y01361D01*
X01726Y01382D02*
X02039D01*
X01704Y01404D02*
X01726Y01382D01*
X01704Y01404D02*
Y01434D01*
X01653Y01485D02*
X01704Y01434D01*
X01323Y01485D02*
X01653D01*
X0129Y01452D02*
X01323Y01485D01*
X00453Y01012D02*
X00454Y01011D01*
X00453Y01012D02*
Y01071D01*
X00404Y01011D02*
D01*
Y00948D02*
Y01011D01*
X00536Y00527D02*
X00563Y005D01*
X00536Y00527D02*
Y00605D01*
X00505Y00636D02*
X00536Y00605D01*
X00479Y00636D02*
X00505D01*
X00453Y00662D02*
X00479Y00636D01*
X00453Y00662D02*
Y00776D01*
X00403Y00829D02*
X00421Y00847D01*
X00403Y00776D02*
Y00829D01*
X00453Y00847D02*
D01*
Y00776D02*
Y00847D01*
X00967Y00494D02*
Y00525D01*
X00323Y00665D02*
X00353Y00635D01*
Y00576D02*
Y00635D01*
X00503Y00517D02*
Y00576D01*
X0046Y00462D02*
X01033D01*
X00473Y00475D02*
Y00615D01*
X0046Y00462D02*
X00473Y00475D01*
X0043Y00462D02*
X0046D01*
X00401Y00687D02*
X00473Y00615D01*
X00401Y00687D02*
Y00696D01*
X0041Y00379D02*
X00428Y00397D01*
X0041Y00323D02*
Y00379D01*
X00467Y00274D02*
X00588D01*
X0046Y00281D02*
X00467Y00274D01*
X0046Y00281D02*
Y00323D01*
X00588Y00274D02*
X00628Y00314D01*
X00709Y0034D02*
X0072D01*
X00683Y00314D02*
X00709Y0034D01*
X00628Y00314D02*
X00683D01*
X0046Y00397D02*
D01*
Y00323D02*
Y00397D01*
X00637Y00292D02*
X00909D01*
X00632Y00303D02*
X00886D01*
X00921Y00338D02*
Y00372D01*
X00886Y00303D02*
X00921Y00338D01*
X00583Y00254D02*
X00632Y00303D01*
X00583Y00134D02*
Y00254D01*
X00572Y00123D02*
X00583Y00134D01*
X0051Y00123D02*
X00572D01*
X00594Y00249D02*
X00637Y00292D01*
X00594Y00091D02*
Y00249D01*
X00566Y00063D02*
X00594Y00091D01*
X0038Y00063D02*
X00566D01*
X0036Y00083D02*
X0038Y00063D01*
X0036Y00083D02*
Y00123D01*
X00565Y01328D02*
X00684D01*
X01376Y01018D02*
X01429D01*
X01499Y00948*
X00569Y00985D02*
Y01052D01*
Y00894D02*
Y00985D01*
X0057Y00986*
X00597*
X00354Y01011D02*
Y01069D01*
X00381Y00907D02*
X00473D01*
X00353Y00879D02*
X00381Y00907D01*
X00353Y00776D02*
Y00879D01*
X00504Y00938D02*
Y01011D01*
X00473Y00907D02*
X00504Y00938D01*
X00569Y00894D02*
X00583Y0088D01*
X00611*
X00633Y00854D02*
X00649Y00838D01*
Y0079D02*
Y00838D01*
X00635Y00776D02*
X00649Y0079D01*
X00635Y00776D02*
X01416D01*
X00503D02*
X00635D01*
X00611Y00854D02*
X00633D01*
X01416Y00776D02*
X01434Y00794D01*
Y00939*
X00353Y00744D02*
X00401Y00696D01*
X00353Y00744D02*
Y00776D01*
X01083Y00475D02*
Y00548D01*
X01052Y00444D02*
X01083Y00475D01*
X00536Y00444D02*
X01052D01*
X0051Y00418D02*
X00536Y00444D01*
X0051Y00323D02*
Y00418D01*
X0106Y00489D02*
Y00629D01*
X01033Y00462D02*
X0106Y00489D01*
X0036Y00392D02*
X0043Y00462D01*
X0036Y00323D02*
Y00392D01*
X00076Y00415D02*
X0008D01*
X00127Y00368*
X0019Y00415D02*
X00194D01*
X00143Y00368D02*
X0019Y00415D01*
X00127Y00339D02*
Y00368D01*
Y00339D02*
X00145Y00321D01*
X00143Y00346D02*
Y00368D01*
Y00346D02*
X00152Y00337D01*
X00264*
X00145Y00321D02*
X00257D01*
X00324Y00254*
X00391*
X00264Y00337D02*
X00331Y0027D01*
X00398*
X00443Y00225*
Y0014D02*
Y00225D01*
X00391Y00254D02*
X00427Y00218D01*
Y0014D02*
Y00218D01*
X00443Y0014D02*
X0046Y00123D01*
X0041D02*
X00427Y0014D01*
X00246Y00786D02*
X00264D01*
X0042Y0063*
X00245Y00787D02*
X00246Y00786D01*
X0042Y00593D02*
Y0063D01*
X00403Y00576D02*
X0042Y00593D01*
X00154Y00787D02*
X00245D01*
X00436Y00593D02*
Y00637D01*
X00271Y00802D02*
X00436Y00637D01*
Y00593D02*
X00453Y00576D01*
X00161Y00802D02*
X00271D01*
X00076Y00887D02*
X00085D01*
X00124Y00848*
X00179Y00887D02*
X00194D01*
X0014Y00848D02*
X00179Y00887D01*
X00124Y00816D02*
Y00848D01*
X0014Y00823D02*
Y00848D01*
X00124Y00816D02*
X00154Y00787D01*
X0014Y00823D02*
X00161Y00802D01*
X00685Y00906D02*
X00686D01*
X00781*
X01493Y00371D02*
X015Y00364D01*
X01493Y00371D02*
Y00451D01*
X0105Y01186D02*
X01051Y01185D01*
X01107*
X01183Y01062D02*
Y01063D01*
X01721Y01361D02*
X02027D01*
X01143Y0134D02*
X0128D01*
X01143Y0126D02*
X01305D01*
X01547Y00364D02*
X01551Y00368D01*
Y0049*
X01596Y00366D02*
Y00512D01*
X01594Y00364D02*
X01596Y00366D01*
X02252Y00635D02*
Y0071D01*
X01786Y00637D02*
Y00689D01*
X01775Y00626D02*
X01786Y00637D01*
X01746Y00626D02*
X01775D01*
X00684Y01328D02*
Y01397D01*
X0071Y01423*
Y01443*
X00565Y01402D02*
X00667D01*
X00674Y01409*
Y01443*
X00564Y01403D02*
X00565Y01402D01*
X00479Y01403D02*
X00564D01*
X00418Y01328D02*
X00453D01*
X00404Y01314D02*
X00418Y01328D01*
X00404Y01227D02*
Y01314D01*
X0053Y01292D02*
X00565Y01328D01*
X00453Y01292D02*
X0053D01*
X00453D02*
X00454Y01291D01*
Y01227D02*
Y01291D01*
X021Y-0015D02*
Y-00076D01*
X02084Y-0006D02*
X021Y-00076D01*
X02001Y-0006D02*
X02084D01*
X022Y-0015D02*
Y-00062D01*
X02187Y-00049D02*
X022Y-00062D01*
X02005Y-00049D02*
X02187D01*
X01961Y-0002D02*
X02001Y-0006D01*
X01961Y-0002D02*
Y00249D01*
X01946Y00264D02*
X01961Y00249D01*
X01972Y-00016D02*
Y00294D01*
X01955Y00311D02*
X01972Y00294D01*
X01722Y00311D02*
X01955D01*
X01972Y-00016D02*
X02005Y-00049D01*
X0128Y0134D02*
X0129Y0135D01*
X01305Y0126D02*
X01334Y01289D01*
X01143Y01185D02*
X01375D01*
X0142Y0123*
Y01421*
X0146Y01099D02*
X0155Y0119D01*
Y01421*
X01145Y0096D02*
X0119D01*
X01205Y00975D02*
Y01065D01*
X01228Y01088*
X01143Y01035D02*
X01155D01*
X01219Y01099D02*
X0146D01*
X01464Y01358D02*
Y01421D01*
X0249Y01292D02*
Y01356D01*
X01183Y01063D02*
X01219Y01099D01*
X0119Y0096D02*
X01192Y00962D01*
X01205Y00975*
X02039Y01382D02*
X02152Y01269D01*
X01678Y00689D02*
X01751D01*
X01656Y00711D02*
X01678Y00689D01*
X01076Y00711D02*
X01656D01*
X01043Y00678D02*
X01076Y00711D01*
X00944Y00327D02*
Y00348D01*
X00909Y00292D02*
X00944Y00327D01*
X01786Y00689D02*
Y0072D01*
X0054Y00479D02*
X00952D01*
X00503Y00517D02*
X0054Y00479D01*
X00952D02*
X00967Y00494D01*
X00563Y005D02*
X00566Y00503D01*
X008*
X01083Y00548D02*
X01108Y00573D01*
X01572*
X01595Y00512D02*
X01596D01*
X01595D02*
Y00526D01*
X01577Y00545D02*
X01595Y00526D01*
X01539Y00545D02*
X01577D01*
X01637Y00654D02*
X01651Y00639D01*
X0106Y00629D02*
X01084Y00653D01*
X01544*
X01545Y00654*
X01637*
X01537Y00627D02*
X01629D01*
X01642Y00614*
Y00364D02*
Y00614D01*
X02Y00008D02*
Y0011D01*
X0202Y0013*
X02035Y00028D02*
X02082Y-00019D01*
X02571*
X0206Y00055D02*
Y0011D01*
Y00055D02*
X02112Y00003D01*
X02433*
X02035Y00061D02*
Y00103D01*
Y00061D02*
X02104Y-00008D01*
X02472*
X01278Y00075D02*
X01279Y00076D01*
X01283Y00073D02*
X01291Y00081D01*
X01494*
X01278Y00122D02*
D01*
X0147*
X01512Y00027D02*
D01*
X01278D02*
X01512D01*
X02124Y01264D02*
D01*
X02208Y00507D02*
Y00523D01*
X02291Y0071D02*
X02296Y00714D01*
X02248D02*
X02252Y0071D01*
X02272Y00621D02*
Y00733D01*
X02152Y00395D02*
Y01269D01*
X02291Y00606D02*
Y0071D01*
X02208Y00523D02*
X02291Y00606D01*
X02207Y00553D02*
Y00556D01*
X02187Y0057D02*
X02252Y00635D01*
X02177Y0057D02*
X02187D01*
X02371Y01271D02*
X02469D01*
X0249Y01292*
X0254Y-0009D02*
X0259D01*
X0262Y-0006*
X02053Y-0003D02*
X02602D01*
X0264Y00008*
Y0007*
X0262Y-0006D02*
Y-00028D01*
X02635Y-00013*
X02687*
X02698Y-00002*
X02124Y0037D02*
Y01264D01*
X02023Y01339D02*
X021Y01262D01*
Y00313D02*
Y01262D01*
X00354Y01069D02*
X0038Y01095D01*
X00526*
X00569Y01052*
X00611Y00906D02*
X00644D01*
X0065Y00912*
Y00951*
X0182Y00573D02*
Y00626D01*
G54D36*
X00353Y01292D02*
X00354Y01291D01*
X00308Y01401D02*
X00353Y01356D01*
Y01292D02*
Y01356D01*
X00626Y01272D02*
X00684D01*
X00596Y01242D02*
X00626Y01272D01*
X00596Y01165D02*
Y01242D01*
X00574Y01143D02*
X00596Y01165D01*
X00374Y01143D02*
X00574D01*
X00354Y01163D02*
X00374Y01143D01*
X00354Y01163D02*
Y01227D01*
Y01291*
G54D37*
X023Y011D03*
X007D03*
Y002D03*
X023D03*
G54D38*
X02695Y00889D03*
Y00415D03*
G54D39*
X02589Y00701D03*
Y00603D03*
X0251D03*
G54D40*
X0251Y00701D03*
G54D41*
X019Y-0015D03*
X02D03*
X021D03*
X022D03*
X02795Y00104D03*
Y-00139D03*
Y01096D03*
G54D42*
X023Y-0015D03*
G54D43*
X00076Y001D03*
Y00257D03*
Y00415D03*
Y00887D03*
Y01044D03*
Y01202D03*
X00194D03*
Y01044D03*
Y00887D03*
Y0073D03*
Y00572D03*
Y00415D03*
Y00257D03*
G54D44*
X00076Y00572D03*
Y0073D03*
G54D45*
X00194Y001D03*
G54D46*
X02795Y00204D03*
Y-00039D03*
Y01196D03*
G54D47*
X02377Y-0012D03*
X0254Y0016D03*
X01065Y01318D03*
X01058Y01035D03*
X00796Y01018D03*
X00742Y00864D03*
X01829Y-00067D03*
X02911Y00224D03*
X02912Y-00018D03*
Y01216D03*
X01808Y00285D03*
X01646Y00126D03*
X01623Y00023D03*
X01566Y00034D03*
X01474Y00687D03*
X01176Y00755D03*
X00453Y01071D03*
X00404Y00948D03*
X00902Y00215D03*
X02152Y00395D03*
X02225Y00387D03*
X00967Y00525D03*
X00323Y00665D03*
X00921Y00372D03*
X01376Y01018D03*
X01434Y00939D03*
X00781Y00906D03*
X01493Y00451D03*
X0105Y01136D03*
X01008Y01182D03*
X01575Y00518D03*
X01937Y0053D03*
X0105Y01186D03*
X01192Y00411D03*
Y00962D03*
X01183Y01062D03*
X01163Y00254D03*
X021Y00313D03*
X01551Y0049D03*
X01Y0005D03*
X01075D03*
Y-00025D03*
X0115Y-001D03*
Y-00025D03*
Y0005D03*
Y00125D03*
X01075D03*
X01D03*
X00701Y00015D03*
X0066Y-0001D03*
X0074D03*
Y0004D03*
X008Y0034D03*
X0072D03*
Y0038D03*
X008D03*
Y0042D03*
X0072D03*
X01887Y00672D03*
X01913Y00647D03*
X01916Y00451D03*
X01533Y00677D03*
X01464Y01358D03*
X01081Y0139D03*
X01032Y01357D03*
X02035Y00103D03*
X02118Y0142D03*
X0249Y01356D03*
X02062Y01213D03*
X02399D03*
X01795Y00924D03*
X01075Y-001D03*
X02035Y-00012D03*
Y00028D03*
X0207Y00416D03*
X00616Y-00126D03*
X00938Y-00103D03*
X00308Y01401D03*
X00732Y00676D03*
X00293Y00696D03*
X01043Y00678D03*
X00269Y00366D03*
X02177Y01263D03*
X02398Y01359D03*
X02579Y01267D03*
X00944Y00348D03*
X01906Y00111D03*
X02176Y00778D03*
X01593Y009D03*
X0134Y00915D03*
X01786Y0072D03*
X01078Y01275D03*
X008Y00503D03*
X0094Y00549D03*
X01651Y00639D03*
X01572Y00573D03*
X01539Y00545D03*
X01537Y00627D03*
X0161Y00677D03*
X01492Y00279D03*
X01926Y00588D03*
X02Y00008D03*
X01494Y00081D03*
X0147Y00122D03*
X01512Y00027D03*
X02124Y0037D03*
X02208Y00507D03*
X02296Y00714D03*
X02248D03*
X02272Y00733D03*
X02207Y00556D03*
X02177Y0057D03*
X02371Y01271D03*
X02698Y-00002D03*
X02074Y0054D03*
X00648Y00951D03*
X02653Y01179D03*
X0182Y00573D03*
X00954Y00825D03*
X01225Y00682D03*
G54D48*
X01499Y00948D03*
X01664Y00946D03*
G54D49*
X01245Y00993D03*
X01755D03*
X01245Y01427D03*
G54D50*
X01594Y01421D03*
X0155D03*
X01507D03*
X01464D03*
X0142D03*
X01377D03*
X01334D03*
X0129D03*
G54D51*
X01746Y01435D03*
G54D52*
X00565Y01328D03*
Y01402D03*
G54D53*
X0041Y00123D03*
X0046D03*
X00403Y00576D03*
X00453D03*
X00503D03*
X00353D03*
X00503Y00776D03*
X00453D03*
X00403D03*
X00353D03*
X0051Y00123D03*
X0036D03*
X0051Y00323D03*
X0046D03*
X0041D03*
X0036D03*
G54D54*
X01783Y00532D03*
X0182Y00626D03*
X01746D03*
G54D55*
X00684Y01272D03*
Y01328D03*
G54D56*
X00423Y01403D03*
X00479D03*
G54D57*
X00354Y01227D03*
X00404D03*
X00454D03*
X00504D03*
X00354Y01011D03*
X00404D03*
X00454D03*
X00504D03*
G54D58*
X01278Y-00162D03*
Y-00114D03*
Y-00066D03*
Y-0002D03*
Y00027D03*
Y00075D03*
Y00122D03*
Y00169D03*
Y00216D03*
Y00264D03*
Y00311D03*
X01279Y00358D03*
X01722D03*
Y00311D03*
Y00264D03*
Y00216D03*
Y00169D03*
Y00122D03*
Y00075D03*
Y00027D03*
Y-0002D03*
Y-00067D03*
Y-00114D03*
Y-00162D03*
G54D59*
X01358Y00364D03*
X01406D03*
X01453D03*
X015D03*
X01547D03*
X01594D03*
X01642D03*
G54D60*
X0259Y-0009D03*
Y0007D03*
X0264Y-0009D03*
X0254D03*
X0249D03*
X02438Y-00089D03*
X0264Y0007D03*
X0254D03*
X0249D03*
X02438Y00069D03*
G54D61*
X00685Y00854D03*
Y00906D03*
X00611D03*
Y0088D03*
Y00854D03*
G54D62*
X01722Y-00111D02*
X01961D01*
X02Y-0015*
X01722Y-00114D02*
Y-00111D01*
G54D63*
X02695Y00415D02*
Y00889D01*
M02*