%FSTAX23Y23*%
%MOIN*%
%SFA1B1*%

%IPPOS*%
%AMD58*
4,1,8,-0.047000,0.007500,-0.047000,-0.007500,-0.039000,-0.015500,0.039000,-0.015500,0.047000,-0.007500,0.047000,0.007500,0.039000,0.015500,-0.039000,0.015500,-0.047000,0.007500,0.0*
1,1,0.016000,-0.039000,0.007500*
1,1,0.016000,-0.039000,-0.007500*
1,1,0.016000,0.039000,-0.007500*
1,1,0.016000,0.039000,0.007500*
%
%AMD59*
4,1,8,0.007500,0.047000,-0.007500,0.047000,-0.015500,0.039000,-0.015500,-0.039000,-0.007500,-0.047000,0.007500,-0.047000,0.015500,-0.039000,0.015500,0.039000,0.007500,0.047000,0.0*
1,1,0.016000,0.007500,0.039000*
1,1,0.016000,-0.007500,0.039000*
1,1,0.016000,-0.007500,-0.039000*
1,1,0.016000,0.007500,-0.039000*
%
%ADD11R,0.022000X0.018000*%
%ADD17R,0.018000X0.022000*%
%ADD18R,0.020000X0.020000*%
%ADD48R,0.035000X0.037000*%
%ADD49R,0.028000X0.131000*%
%ADD50R,0.028000X0.043000*%
%ADD51R,0.045000X0.072000*%
%ADD52R,0.059000X0.051000*%
%ADD53O,0.024000X0.059000*%
%ADD54R,0.024000X0.039000*%
%ADD55R,0.035000X0.028000*%
%ADD56R,0.028000X0.035000*%
%ADD57R,0.024000X0.060000*%
G04~CAMADD=58~8~0.0~0.0~310.0~940.0~80.0~0.0~15~0.0~0.0~0.0~0.0~0~0.0~0.0~0.0~0.0~0~0.0~0.0~0.0~90.0~940.0~310.0*
%ADD58D58*%
G04~CAMADD=59~8~0.0~0.0~310.0~940.0~80.0~0.0~15~0.0~0.0~0.0~0.0~0~0.0~0.0~0.0~0.0~0~0.0~0.0~0.0~0.0~310.0~940.0*
%ADD59D59*%
%ADD60R,0.016000X0.086000*%
%ADD61R,0.028000X0.016000*%
%LNkavi_pcb_r5-1*%
%LPD*%
G54D11*
X00453Y01292D03*
Y01328D03*
G54D17*
X0273Y00618D03*
X02694D03*
X01786Y00689D03*
X01751D03*
X01143Y0134D03*
X01107D03*
X01143Y0126D03*
X01107D03*
X01143Y01185D03*
X01107D03*
X01143Y0111D03*
X01107D03*
X01143Y0096D03*
X01107D03*
X01143Y01035D03*
X01107D03*
X00632Y00986D03*
X00597D03*
X00674Y01443D03*
X0071D03*
G54D18*
X02727Y00679D03*
X02695D03*
X00453Y00847D03*
X00421D03*
X00385Y01292D03*
X00353D03*
X0046Y00397D03*
X00428D03*
G54D48*
X01499Y00948D03*
X01664Y00946D03*
G54D49*
X01245Y00993D03*
X01755D03*
X01245Y01427D03*
G54D50*
X01594Y01421D03*
X0155D03*
X01507D03*
X01464D03*
X0142D03*
X01377D03*
X01334D03*
X0129D03*
G54D51*
X01746Y01435D03*
G54D52*
X00565Y01328D03*
Y01402D03*
G54D53*
X0041Y00123D03*
X0046D03*
X00403Y00576D03*
X00453D03*
X00503D03*
X00353D03*
X00503Y00776D03*
X00453D03*
X00403D03*
X00353D03*
X0051Y00123D03*
X0036D03*
X0051Y00323D03*
X0046D03*
X0041D03*
X0036D03*
G54D54*
X01783Y00532D03*
X0182Y00626D03*
X01746D03*
G54D55*
X00684Y01272D03*
Y01328D03*
G54D56*
X00423Y01403D03*
X00479D03*
G54D57*
X00354Y01227D03*
X00404D03*
X00454D03*
X00504D03*
X00354Y01011D03*
X00404D03*
X00454D03*
X00504D03*
G54D58*
X01278Y-00162D03*
Y-00114D03*
Y-00066D03*
Y-0002D03*
Y00027D03*
Y00075D03*
Y00122D03*
Y00169D03*
Y00216D03*
Y00264D03*
Y00311D03*
X01279Y00358D03*
X01722D03*
Y00311D03*
Y00264D03*
Y00216D03*
Y00169D03*
Y00122D03*
Y00075D03*
Y00027D03*
Y-0002D03*
Y-00067D03*
Y-00114D03*
Y-00162D03*
G54D59*
X01358Y00364D03*
X01406D03*
X01453D03*
X015D03*
X01547D03*
X01594D03*
X01642D03*
G54D60*
X0259Y-0009D03*
Y0007D03*
X0264Y-0009D03*
X0254D03*
X0249D03*
X02438Y-00089D03*
X0264Y0007D03*
X0254D03*
X0249D03*
X02438Y00069D03*
G54D61*
X00685Y00854D03*
Y00906D03*
X00611D03*
Y0088D03*
Y00854D03*
M02*